<svg xmlns="http://www.w3.org/2000/svg" viewBox="0 0 577.886 525.357" height="525.357" width="577.886"><path d="M258.374 445.357c-28.735 0-52.032-23.295-52.032-52.03 0-7.193 1.415-14.065 4.1-20.276 2.45-5.666 3.378-7.651 13.893-20.415 9.71-11.876 20.51-35.607 20.467-63.447.043-27.839-10.757-51.57-20.467-63.447-10.515-12.762-11.443-14.748-13.893-20.415-2.685-6.21-4.1-13.082-4.1-20.275l.003-.457c.161 19.166 10.947 37.517 29.367 46.435a51.827 51.827 0 0 0 20.035 5.145v.001l.002-.001c.472.024.945.036 1.416.036 7.046 0 13.931-2.552 21.897-4.362a88.115 88.115 0 0 1 8.883-1.535c-9.874 14.722-17.664 35.491-17.359 58.875-.347 26.698 9.855 49.988 21.665 64.763 5.441 6.807 11.106 12.14 14.054 19.097l.001.002a51.87 51.87 0 0 1 4.099 20.275c0 28.736-23.295 52.031-52.031 52.031"/><path d="M445.806 327.004a51.843 51.843 0 0 1-22.637-5.213 51.87 51.87 0 0 1-16.461-12.525h-.002l-.001-.002c-4.978-5.684-7.309-13.108-11.064-20.971-8.151-17.068-24.666-36.4-48.847-47.722-15.743-7.876-32.148-10.98-46.785-10.98-4.185 0-8.225.254-12.064.723a86.8 86.8 0 0 1 4.306-5.886c5.441-6.808 11.106-12.14 14.054-19.098l.001-.002a51.866 51.866 0 0 0 4.099-20.275c0-28.737-23.295-52.032-52.031-52.032-28.583 0-51.784 23.049-52.029 51.574-.065-7.746 1.606-15.625 5.21-23.07 8.986-18.559 27.545-29.369 46.869-29.369a51.85 51.85 0 0 1 22.636 5.212c6.474 3.135 12.042 7.402 16.462 12.526 4.033 4.675 5.415 6.374 12.322 21.4 6.457 13.915 23.11 33.977 48.185 46.071 16.776 8.154 34.011 11.124 48.048 11.124 6.914-.001 13.053-.721 17.977-1.898 12.672-3.077 16.713-3.708 20.88-3.708 1.117 0 2.245.046 3.548.1 6.76.29 13.562 2.012 20.035 5.147 25.864 12.523 36.68 43.641 24.157 69.505-8.985 18.56-27.544 29.369-46.868 29.369"/><path d="M257.165 236.211c-.471 0-.944-.012-1.416-.036l-.003.001.001-.001a51.827 51.827 0 0 1-20.035-5.145c-18.42-8.918-29.206-27.269-29.367-46.435.245-28.525 23.446-51.574 52.029-51.574 28.736 0 52.031 23.295 52.031 52.031a51.86 51.86 0 0 1-4.099 20.275l-.001.003c-2.948 6.957-8.613 12.29-14.054 19.097a86.8 86.8 0 0 0-4.306 5.887 88.115 88.115 0 0 0-8.883 1.535c-7.966 1.81-14.85 4.362-21.897 4.362m-124.143 106C103.739 342.211 80 318.472 80 289.19c0-29.284 23.739-53.023 53.022-53.023 29.283 0 53.022 23.74 53.022 53.023 0 29.282-23.739 53.021-53.022 53.021m277.44-156.167c-29.283 0-53.022-23.739-53.022-53.023C357.44 103.74 381.179 80 410.463 80c29.282 0 53.02 23.739 53.02 53.021 0 29.284-23.738 53.023-53.02 53.023"/></svg>